<svg id="svg" fill="#223F59" stroke="#223F59" width="116" height="116" version="1.1" viewBox="144 144 512 512" xmlns="http://www.w3.org/2000/svg">
    <g id="IconSvg_bgCarrier" stroke-width="0"></g>
    <g id="IconSvg_tracerCarrier" stroke-linecap="round" stroke-linejoin="round" stroke="#CCCCCC" stroke-width="0">
      <g xmlns="http://www.w3.org/2000/svg">
  <path d="m363.26 221.05c0.003906 9.7422 3.875 19.086 10.766 25.973 6.8906 6.8867 16.234 10.754 25.977 10.754 9.7422 0 19.086-3.875 25.977-10.762 6.8867-6.8906 10.754-16.234 10.754-25.977 0-9.7422-3.8711-19.086-10.762-25.977-6.8867-6.8867-16.23-10.758-25.973-10.758-9.7422 0.015624-19.078 3.8906-25.965 10.781-6.8867 6.8867-10.762 16.227-10.773 25.965z"></path>
  <path d="m281.04 184.3c-9.7422 0-19.086 3.8711-25.977 10.762-6.8867 6.8867-10.758 16.23-10.758 25.977 0 9.7422 3.8711 19.086 10.758 25.973 6.8906 6.8906 16.234 10.762 25.977 10.762 9.7422 0 19.086-3.8711 25.977-10.762 6.8906-6.8867 10.762-16.23 10.762-25.973-0.015625-9.7422-3.8906-19.074-10.777-25.961-6.8867-6.8867-16.223-10.762-25.961-10.777z"></path>
  <path d="m542.1 270.41h-46.297c-10.812 0.015625-21.238 4.0234-29.273 11.262 4.9922 6.6328 8.3906 14.336 9.9219 22.5l33.703 180.03h108.28l-33.348-178.08v-0.003907c-1.875-10.031-7.1953-19.09-15.047-25.613-7.8477-6.5195-17.734-10.09-27.938-10.094z"></path>
  <path d="m300.52 484.2h198.96l-33.352-178.1c-1.8789-10.027-7.2031-19.086-15.055-25.602-7.8477-6.5156-17.73-10.086-27.93-10.086h-46.289c-10.203 0.003906-20.082 3.5703-27.93 10.09-7.8477 6.5156-13.172 15.57-15.047 25.598z"></path>
  <path d="m323.55 304.17c1.5312-8.168 4.9258-15.867 9.9219-22.504-8.0391-7.2344-18.465-11.242-29.277-11.258h-46.297c-10.199 0.003906-20.078 3.5703-27.93 10.09-7.8477 6.5156-13.172 15.574-15.047 25.602l-33.352 178.1h108.28z"></path>
  <path d="m294.2 494.7h-68l10.34 121h89.031l10.047-109.32-0.99609-11.672z"></path>
  <path d="m465.37 494.7-0.62891 7.3828 9.7109 113.61h89l10.344-121z"></path>
  <path d="m386.84 494.7h-41.684l0.95312 11.133 9.3906 109.86h89l10.34-121z"></path>
  <path d="m518.95 184.3c-9.7422 0-19.086 3.8711-25.977 10.762-6.8906 6.8867-10.758 16.23-10.758 25.977 0 9.7422 3.8672 19.086 10.758 25.973 6.8906 6.8906 16.234 10.762 25.977 10.762s19.086-3.8711 25.977-10.762c6.8906-6.8867 10.762-16.23 10.762-25.973-0.015625-9.7422-3.8906-19.074-10.777-25.961-6.8867-6.8867-16.223-10.762-25.961-10.777z"></path>
 </g>

      </g>
     <g id="IconSvg_iconCarrier">
      <g xmlns="http://www.w3.org/2000/svg">
  <path d="m363.26 221.05c0.003906 9.7422 3.875 19.086 10.766 25.973 6.8906 6.8867 16.234 10.754 25.977 10.754 9.7422 0 19.086-3.875 25.977-10.762 6.8867-6.8906 10.754-16.234 10.754-25.977 0-9.7422-3.8711-19.086-10.762-25.977-6.8867-6.8867-16.23-10.758-25.973-10.758-9.7422 0.015624-19.078 3.8906-25.965 10.781-6.8867 6.8867-10.762 16.227-10.773 25.965z"></path>
  <path d="m281.04 184.3c-9.7422 0-19.086 3.8711-25.977 10.762-6.8867 6.8867-10.758 16.23-10.758 25.977 0 9.7422 3.8711 19.086 10.758 25.973 6.8906 6.8906 16.234 10.762 25.977 10.762 9.7422 0 19.086-3.8711 25.977-10.762 6.8906-6.8867 10.762-16.23 10.762-25.973-0.015625-9.7422-3.8906-19.074-10.777-25.961-6.8867-6.8867-16.223-10.762-25.961-10.777z"></path>
  <path d="m542.1 270.41h-46.297c-10.812 0.015625-21.238 4.0234-29.273 11.262 4.9922 6.6328 8.3906 14.336 9.9219 22.5l33.703 180.03h108.28l-33.348-178.08v-0.003907c-1.875-10.031-7.1953-19.09-15.047-25.613-7.8477-6.5195-17.734-10.09-27.938-10.094z"></path>
  <path d="m300.52 484.2h198.96l-33.352-178.1c-1.8789-10.027-7.2031-19.086-15.055-25.602-7.8477-6.5156-17.73-10.086-27.93-10.086h-46.289c-10.203 0.003906-20.082 3.5703-27.93 10.09-7.8477 6.5156-13.172 15.57-15.047 25.598z"></path>
  <path d="m323.55 304.17c1.5312-8.168 4.9258-15.867 9.9219-22.504-8.0391-7.2344-18.465-11.242-29.277-11.258h-46.297c-10.199 0.003906-20.078 3.5703-27.93 10.09-7.8477 6.5156-13.172 15.574-15.047 25.602l-33.352 178.1h108.28z"></path>
  <path d="m294.2 494.7h-68l10.34 121h89.031l10.047-109.32-0.99609-11.672z"></path>
  <path d="m465.37 494.7-0.62891 7.3828 9.7109 113.61h89l10.344-121z"></path>
  <path d="m386.84 494.7h-41.684l0.95312 11.133 9.3906 109.86h89l10.34-121z"></path>
  <path d="m518.95 184.3c-9.7422 0-19.086 3.8711-25.977 10.762-6.8906 6.8867-10.758 16.23-10.758 25.977 0 9.7422 3.8672 19.086 10.758 25.973 6.8906 6.8906 16.234 10.762 25.977 10.762s19.086-3.8711 25.977-10.762c6.8906-6.8867 10.762-16.23 10.762-25.973-0.015625-9.7422-3.8906-19.074-10.777-25.961-6.8867-6.8867-16.223-10.762-25.961-10.777z"></path>
 </g>

      </g>
      </svg>